<?xml version="1.0" standalone="no"?>
<!DOCTYPE svg PUBLIC "-//W3C//DTD SVG 20010904//EN"
 "http://www.w3.org/TR/2001/REC-SVG-20010904/DTD/svg10.dtd">
<svg version="1.0" xmlns="http://www.w3.org/2000/svg"
 width="605.000000pt" height="605.000000pt" viewBox="0 0 605.000000 605.000000"
 preserveAspectRatio="xMidYMid meet">
<metadata>
Created by potrace 1.11, written by Peter Selinger 2001-2013
</metadata>
<g transform="translate(0.000000,605.000000) scale(0.100000,-0.100000)"
fill="#000000" stroke="none">
<path d="M1962 5690 c-67 -33 -127 -60 -132 -60 -6 0 -10 -4 -10 -10 0 -5 -3
-9 -7 -8 -10 3 -152 -66 -174 -84 -28 -23 -40 -57 -34 -96 3 -20 10 -41 15
-46 6 -6 10 -18 10 -27 0 -9 7 -22 15 -29 9 -7 14 -15 11 -17 -2 -2 22 -57 54
-121 31 -64 72 -148 90 -187 18 -38 59 -125 91 -193 33 -68 59 -127 59 -132 0
-6 5 -10 10 -10 6 0 10 -4 10 -10 0 -11 31 -80 125 -275 37 -77 82 -172 101
-212 18 -40 68 -143 110 -230 42 -87 79 -167 84 -178 8 -20 4 -20 -1084 -20
-1050 0 -1092 -1 -1126 -19 -77 -42 -130 -122 -161 -246 -28 -111 -12 -473 24
-559 5 -14 11 -29 11 -33 1 -4 17 -26 37 -50 61 -73 142 -103 271 -100 63 1
68 -1 69 -21 0 -12 2 -31 4 -42 2 -11 7 -40 10 -64 3 -25 8 -48 11 -52 2 -4 6
-29 9 -56 3 -26 7 -59 10 -73 7 -36 12 -64 29 -165 9 -49 17 -101 20 -115 2
-14 7 -43 10 -65 3 -22 8 -51 10 -65 8 -42 47 -273 52 -305 2 -16 10 -66 18
-110 7 -44 12 -83 9 -88 -2 -4 -1 -7 4 -7 4 0 8 -10 9 -22 0 -13 4 -41 7 -63
12 -64 19 -109 23 -130 2 -11 7 -40 10 -65 3 -25 8 -54 10 -65 13 -67 26 -141
29 -168 3 -26 19 -102 40 -187 17 -72 91 -211 150 -283 85 -103 197 -174 320
-202 56 -13 286 -15 1822 -12 967 1 1772 6 1788 10 55 13 159 60 212 94 64 42
154 138 193 206 42 72 79 195 84 277 3 38 9 95 15 127 6 32 13 74 16 93 3 19
8 46 10 60 3 14 7 43 10 65 2 22 7 51 9 65 3 14 8 41 10 60 3 19 7 44 9 55 3
11 8 40 11 65 3 25 8 56 11 69 2 12 7 42 9 65 3 22 8 52 11 66 3 14 8 43 11
65 3 22 7 47 8 55 2 8 6 35 10 60 4 25 10 59 12 75 2 17 6 41 9 55 4 22 10 60
20 135 2 11 6 35 9 53 3 17 8 46 11 62 6 34 7 42 30 194 9 59 18 116 20 125 1
9 8 50 15 91 l12 75 96 0 c78 0 106 4 142 21 100 47 171 152 187 280 9 73 10
328 1 368 -4 16 -13 53 -19 82 -7 30 -16 54 -21 54 -4 0 -7 4 -5 8 5 19 -64
112 -104 139 -87 58 -18 55 -1435 58 -720 2 -1313 3 -1317 4 -4 1 -25 38 -46
84 -21 45 -65 138 -98 207 -33 69 -82 170 -108 225 -96 201 -168 352 -198 415
-18 36 -32 67 -33 70 0 3 -31 68 -68 145 -100 205 -169 349 -171 355 -4 12
-58 127 -138 291 -117 241 -123 244 -315 149z m1158 -2194 c86 -20 179 -92
229 -180 36 -62 43 -92 45 -176 1 -92 -7 -131 -43 -193 -123 -214 -408 -257
-581 -87 -85 85 -122 174 -116 285 3 52 11 100 16 100 1 0 3 7 5 16 6 31 54
104 92 141 92 89 221 123 353 94z m-1606 -936 c14 0 61 -37 61 -48 1 -4 4 -16
7 -27 4 -11 9 -36 12 -55 3 -19 8 -46 10 -60 8 -44 27 -164 31 -195 6 -49 15
-107 25 -160 5 -27 11 -68 14 -90 3 -22 7 -49 10 -60 2 -11 7 -40 10 -65 3
-25 8 -56 11 -70 3 -14 7 -38 9 -55 3 -16 11 -73 20 -125 8 -52 17 -113 21
-135 3 -23 7 -50 9 -60 2 -11 7 -40 10 -65 3 -25 11 -72 17 -105 6 -33 12 -71
13 -85 2 -14 6 -38 9 -55 12 -60 21 -141 21 -191 0 -52 -23 -95 -54 -103 -21
-5 -419 -8 -452 -3 -38 6 -75 45 -83 90 -8 41 -9 46 -25 152 -6 41 -14 86 -16
100 -3 14 -7 40 -9 59 -3 19 -7 46 -10 60 -2 14 -7 44 -10 66 -5 34 -21 129
-40 246 -3 15 -8 47 -11 70 -3 24 -8 53 -10 64 -1 11 -5 38 -9 60 -3 22 -7 51
-10 65 -2 14 -7 41 -10 60 -3 19 -8 46 -10 60 -3 14 -7 42 -10 63 -10 76 -15
106 -35 227 -12 69 -23 155 -25 191 -4 58 -1 69 18 87 28 26 64 40 125 47 27
3 59 8 73 10 13 3 42 8 64 11 22 3 74 11 115 18 41 8 81 12 88 10 8 -2 19 -4
26 -4z m3216 -5 c27 -5 62 -11 130 -20 24 -4 47 -8 50 -10 3 -2 34 -6 70 -10
36 -4 80 -14 99 -22 37 -18 62 -65 57 -104 -2 -13 -7 -42 -10 -64 -3 -22 -8
-51 -10 -65 -3 -14 -12 -72 -21 -130 -22 -142 -25 -161 -30 -190 -3 -14 -7
-47 -11 -75 -3 -27 -8 -54 -11 -58 -2 -4 -6 -29 -8 -55 -3 -26 -7 -58 -10 -72
-3 -14 -8 -45 -11 -70 -3 -25 -7 -52 -9 -60 -3 -8 -7 -31 -10 -50 -3 -19 -16
-107 -30 -195 -14 -88 -30 -189 -35 -225 -5 -36 -12 -74 -14 -85 -2 -11 -7
-40 -10 -65 -16 -115 -26 -143 -62 -167 -24 -15 -54 -18 -247 -18 -240 0 -270
5 -288 52 -11 27 -12 90 -4 143 9 60 17 109 25 160 5 30 12 73 15 95 4 22 8
51 11 65 2 14 7 48 10 75 4 28 8 53 10 56 2 4 6 24 9 45 6 44 14 99 19 129 2
11 7 43 10 70 4 28 9 57 11 65 2 8 7 35 10 60 3 25 8 57 11 72 5 28 13 75 19
118 1 14 12 81 23 150 12 69 24 148 28 175 3 28 8 53 10 56 1 3 6 32 9 64 10
88 26 127 63 152 33 22 55 23 132 8z m-2007 -141 c15 -15 27 -32 28 -38 1 -6
2 -22 4 -36 2 -14 6 -61 9 -105 4 -44 8 -98 11 -120 2 -22 7 -83 10 -135 4
-52 9 -111 11 -130 2 -19 6 -66 9 -105 2 -38 7 -92 9 -120 3 -27 8 -90 11
-140 4 -49 8 -101 10 -115 2 -14 7 -70 11 -125 3 -55 8 -109 10 -119 6 -31 17
-198 16 -241 -1 -53 -26 -111 -54 -126 -28 -16 -440 -14 -478 1 -40 17 -57 65
-65 188 -3 40 -7 85 -9 100 -3 15 -8 72 -12 127 -4 55 -8 116 -10 135 -1 19
-5 64 -8 100 -3 36 -8 92 -11 125 -3 33 -7 96 -10 140 -3 44 -8 94 -10 112 -3
17 -7 69 -10 115 -3 46 -8 103 -10 128 -27 306 -27 317 3 351 29 32 37 33 212
44 58 4 106 8 107 9 1 0 44 2 96 4 90 3 95 2 120 -24z m1027 10 c161 -10 182
-15 206 -52 16 -24 19 -72 9 -162 -3 -36 -15 -175 -20 -245 -2 -22 -6 -74 -10
-115 -4 -41 -8 -95 -10 -120 -4 -59 -14 -181 -20 -250 -9 -104 -15 -175 -20
-240 -3 -36 -7 -87 -9 -115 -3 -27 -8 -87 -11 -133 -12 -164 -22 -200 -64
-225 -25 -15 -60 -18 -238 -19 -114 -1 -218 2 -231 6 -12 4 -33 23 -46 42 -23
34 -24 42 -19 147 3 62 6 127 7 144 0 18 3 33 6 33 3 0 5 24 6 53 1 47 7 141
19 267 2 25 7 79 10 120 3 41 7 98 10 125 2 28 7 84 10 125 3 41 8 95 10 120
2 25 7 77 10 115 27 349 28 351 67 380 24 17 52 17 328 -1z"/>
</g>
</svg>
